<svg xmlns="http://www.w3.org/2000/svg" viewBox="0 0 512 512">
  <defs>
    <linearGradient id="grad1" x1="0%" y1="0%" x2="100%" y2="100%">
      <stop offset="0%" style="stop-color:#4ade80;stop-opacity:1" />
      <stop offset="100%" style="stop-color:#16a34a;stop-opacity:1" />
    </linearGradient>
  </defs>
  <path d="M256 0C114.6 0 0 114.6 0 256s114.6 256 256 256 256-114.6 256-256S397.4 0 256 0z" fill="url(#grad1)"/>
  <path d="M256 64c-88.4 0-160 71.6-160 160 0 88.4 71.6 160 160 160 88.4 0 160-71.6 160-160 0-88.4-71.6-160-160-160zm0 288c-70.7 0-128-57.3-128-128 0-70.7 57.3-128 128-128 70.7 0 128 57.3 128 128 0 70.7-57.3 128-128 128z" fill="#ffffff" opacity="0.2"/>
  <path d="M256 112c-79.5 0-144 64.5-144 144s64.5 144 144 144 144-64.5 144-144-64.5-144-144-144zm0 256c-61.9 0-112-50.1-112-112s50.1-112 112-112 112 50.1 112 112-50.1 112-112 112z" fill="#ffffff"/>
  <path d="M256 144c-17.7 0-32 14.3-32 32s14.3 32 32 32 32-14.3 32-32-14.3-32-32-32zm0 128c-17.7 0-32 14.3-32 32s14.3 32 32 32 32-14.3 32-32-14.3-32-32-32z" fill="#16a34a"/>
  <path d="M256 128c-70.7 0-128 57.3-128 128s57.3 128 128 128 128-57.3 128-128-57.3-128-128-128zm0 224c-53 0-96-43-96-96s43-96 96-96 96 43 96 96-43 96-96 96z" fill="none" stroke="#ffffff" stroke-width="16" stroke-linecap="round" stroke-linejoin="round"/>
  <path d="M256 160c0-20 20-40 40-40s20 20 20 40-20 40-40 40-40-20-40-40 20-40 20-40z" fill="#ffffff"/>
  <path d="M256 200c-30 0-50 20-50 50s20 50 50 50 50-20 50-50-20-50-50-50zm0 80c-15 0-25-10-25-25s10-25 25-25 25 10 25 25-10 25-25 25z" fill="#16a34a"/>
</svg>
